<svg width="21" height="20" viewBox="0 0 21 20" fill="none" xmlns="http://www.w3.org/2000/svg">
<path d="M19.7032 8.52036L18.7715 12.4802C17.9729 15.9 16.3948 17.2831 13.4287 16.9989C12.9534 16.961 12.44 16.8758 11.8886 16.7431L10.2914 16.3642C6.32711 15.4263 5.10073 13.4749 6.0324 9.51505L6.96407 5.54577C7.1542 4.74055 7.38236 4.03953 7.66757 3.46166C8.77986 1.16914 10.6717 0.553378 13.847 1.30176L15.4346 1.67122C19.418 2.5996 20.6348 4.56055 19.7032 8.52036Z" stroke="currentColor" stroke-width="1.5" stroke-linecap="round" stroke-linejoin="round"/>
<path opacity="0.4" d="M13.4292 16.9992C12.8398 17.397 12.0983 17.7286 11.1951 18.0223L9.69303 18.5149C5.91883 19.7274 3.93191 18.7138 2.70553 14.9529L1.48866 11.211C0.271791 7.45014 1.27951 5.46077 5.05371 4.24819L6.55579 3.75558C6.94557 3.63243 7.31633 3.52823 7.66808 3.46191C7.38288 4.03978 7.15472 4.7408 6.96458 5.54602L6.03291 9.51531C5.10125 13.4751 6.32763 15.4266 10.292 16.3645L11.8891 16.7434C12.4405 16.876 12.9539 16.9613 13.4292 16.9992Z" stroke="currentColor" stroke-width="1.5" stroke-linecap="round" stroke-linejoin="round"/>
<path opacity="0.4" d="M11.1279 6.71094L15.7387 7.87614" stroke="currentColor" stroke-width="1.5" stroke-linecap="round" stroke-linejoin="round"/>
<path opacity="0.4" d="M10.1973 10.376L12.9542 11.077" stroke="currentColor" stroke-width="1.5" stroke-linecap="round" stroke-linejoin="round"/>
</svg>
