<svg width="20" height="20" viewBox="0 0 20 20" fill="none" xmlns="http://www.w3.org/2000/svg">
<path d="M17.11 11.3447H2.89C1.54 11.3447 1 11.9207 1 13.3517V16.9877C1 18.4187 1.54 18.9947 2.89 18.9947H17.11C18.46 18.9947 19 18.4187 19 16.9877V13.3517C19 11.9207 18.46 11.3447 17.11 11.3447Z" stroke="currentColor" stroke-width="1.5" stroke-linecap="round" stroke-linejoin="round"/>
<path opacity="0.4" d="M10.81 0.995117H2.89C1.54 0.995117 1 1.57112 1 3.00212V6.63812C1 8.06912 1.54 8.64512 2.89 8.64512H10.81C12.16 8.64512 12.7 8.06912 12.7 6.63812V3.00212C12.7 1.57112 12.16 0.995117 10.81 0.995117Z" stroke="currentColor" stroke-width="1.5" stroke-linecap="round" stroke-linejoin="round"/>
</svg>
