<svg width="20" height="20" viewBox="0 0 20 20" fill="none" xmlns="http://www.w3.org/2000/svg">
<path d="M14.8422 8.53747V11.4444C14.8422 13.8653 13.8702 14.8373 11.4493 14.8373H8.54234C6.12139 14.8373 5.14941 13.8653 5.14941 11.4444V8.53747C5.14941 6.11653 6.12139 5.14453 8.54234 5.14453H11.4493C13.8792 5.15353 14.8422 6.11653 14.8422 8.53747Z" stroke="currentColor" stroke-width="1.5" stroke-linecap="round" stroke-linejoin="round"/>
<path opacity="0.4" d="M18.9994 4.38803V7.29497C18.9994 9.71592 18.0274 10.6879 15.6065 10.6879H14.8415V8.54596C14.8415 6.12501 13.8695 5.15302 11.4486 5.15302H9.30664V4.38803C9.30664 1.96709 10.2786 0.995117 12.6996 0.995117H15.6065C18.0274 0.995117 18.9994 1.96709 18.9994 4.38803Z" stroke="currentColor" stroke-width="1.5" stroke-linecap="round" stroke-linejoin="round"/>
<path opacity="0.4" d="M1 15.6016V12.6947C1 10.2737 1.97198 9.30176 4.39292 9.30176H5.1579V11.4437C5.1579 13.8646 6.12988 14.8366 8.55083 14.8366H10.6928V15.6016C10.6928 18.0226 9.7208 18.9945 7.29986 18.9945H4.39292C1.97198 18.9945 1 18.0226 1 15.6016Z" stroke="currentColor" stroke-width="1.5" stroke-linecap="round" stroke-linejoin="round"/>
</svg>
