<svg width="20" height="20" viewBox="0 0 20 20" fill="none" xmlns="http://www.w3.org/2000/svg">
<path d="M8.65 17.1051V2.88512C8.65 1.53512 8.074 0.995117 6.643 0.995117H3.007C1.576 0.995117 1 1.53512 1 2.88512V17.1051C1 18.4551 1.576 18.9951 3.007 18.9951H6.643C8.074 18.9951 8.65 18.4551 8.65 17.1051Z" stroke="currentColor" stroke-width="1.5" stroke-linecap="round" stroke-linejoin="round"/>
<path opacity="0.4" d="M18.9996 10.8051V2.88512C18.9996 1.53512 18.4236 0.995117 16.9926 0.995117H13.3566C11.9256 0.995117 11.3496 1.53512 11.3496 2.88512V10.8051C11.3496 12.1551 11.9256 12.6951 13.3566 12.6951H16.9926C18.4236 12.6951 18.9996 12.1551 18.9996 10.8051Z" stroke="currentColor" stroke-width="1.5" stroke-linecap="round" stroke-linejoin="round"/>
</svg>
