<svg width="20" height="20" viewBox="0 0 20 20" fill="none" xmlns="http://www.w3.org/2000/svg">
<path d="M4.11354 15.8655V13.2243C4.11354 12.3469 4.79747 11.5599 5.76937 11.5599C6.64228 11.5599 7.4252 12.2474 7.4252 13.2243V15.766C7.4252 17.5298 5.96735 18.9951 4.21253 18.9951C2.4577 18.9951 0.999847 17.5207 0.999847 15.766V10.1941C0.900857 5.11069 4.89646 0.995117 9.95395 0.995117C15.0114 0.995117 18.998 5.11069 18.998 10.0946V15.6665C18.998 17.4303 17.5402 18.8956 15.7854 18.8956C14.0305 18.8956 12.5727 17.4303 12.5727 15.6665V13.1248C12.5727 12.2474 13.2566 11.4604 14.2285 11.4604C15.1014 11.4604 15.8844 12.1479 15.8844 13.1248V15.8655" stroke="currentColor" stroke-width="1.5" stroke-linecap="round" stroke-linejoin="round"/>
</svg>
