<svg width="20" height="20" viewBox="0 0 20 20" fill="none" xmlns="http://www.w3.org/2000/svg">
<path d="M5.5 4.59961H14.5C15.058 4.59961 15.553 4.61761 15.994 4.68061C18.361 4.94161 19 6.05761 19 9.09961V10.8996C19 13.9416 18.361 15.0576 15.994 15.3186C15.553 15.3816 15.058 15.3996 14.5 15.3996H5.5C4.942 15.3996 4.447 15.3816 4.006 15.3186C1.639 15.0576 1 13.9416 1 10.8996V9.09961C1 6.05761 1.639 4.94161 4.006 4.68061C4.447 4.61761 4.942 4.59961 5.5 4.59961Z" stroke="currentColor" stroke-width="1.5" stroke-linecap="round" stroke-linejoin="round"/>
<path opacity="0.4" d="M14.5001 15.3994C15.0581 15.3994 15.5531 15.3814 15.9941 15.3184C16.0031 15.4444 16.0031 15.5614 16.0031 15.6964V16.0024C16.0031 18.3964 15.4001 18.9994 12.9971 18.9994H7.00307C4.60007 18.9994 3.99707 18.3964 3.99707 16.0024V15.6964C3.99707 15.5614 3.99707 15.4444 4.00607 15.3184C4.44707 15.3814 4.94207 15.3994 5.50007 15.3994H14.5001Z" stroke="currentColor" stroke-width="1.5" stroke-linecap="round" stroke-linejoin="round"/>
<path opacity="0.4" d="M7.00307 1H12.9971C15.4001 1 16.0031 1.603 16.0031 3.997V4.303C16.0031 4.438 16.0031 4.555 15.9941 4.681C15.5531 4.618 15.0581 4.6 14.5001 4.6H5.50007C4.94207 4.6 4.44707 4.618 4.00607 4.681C3.99707 4.555 3.99707 4.438 3.99707 4.303V3.997C3.99707 1.603 4.60007 1 7.00307 1Z" stroke="currentColor" stroke-width="1.5" stroke-linecap="round" stroke-linejoin="round"/>
</svg>
