<svg width="20" height="20" viewBox="0 0 20 20" fill="none" xmlns="http://www.w3.org/2000/svg">
<path d="M8.03065 2.73627V15.805C8.03065 17.0457 7.50128 17.542 6.18614 17.542H2.84451C1.52937 17.542 1 17.0457 1 15.805V2.73627C1 1.49557 1.52937 0.999285 2.84451 0.999285H6.18614C7.50128 0.999285 8.03065 1.49557 8.03065 2.73627Z" stroke="currentColor" stroke-width="1.5" stroke-linecap="round" stroke-linejoin="round"/>
<path d="M17.8434 15.1864L15.1881 17.8417C14.3634 18.6664 13.6557 18.6254 12.7257 17.6955L10.3629 15.3326C9.43291 14.4026 9.39197 13.6949 10.2166 12.8703L12.8661 10.2208C13.6966 9.39028 14.3985 9.43707 15.3284 10.367L17.6913 12.7299C18.6271 13.654 18.6681 14.3617 17.8434 15.1864Z" stroke="currentColor" stroke-width="1.5" stroke-linecap="round" stroke-linejoin="round"/>
<path opacity="0.4" d="M17.5424 2.84511V6.18674C17.5424 7.50188 17.013 8.03125 15.6979 8.03125H12.3562C11.0411 8.03125 10.5117 7.50188 10.5117 6.18674V2.84511C10.5117 1.52997 11.0411 1.0006 12.3562 1.0006H15.6979C17.013 1.0006 17.5424 1.52997 17.5424 2.84511Z" stroke="currentColor" stroke-width="1.5" stroke-linecap="round" stroke-linejoin="round"/>
</svg>
