<svg width="20" height="20" viewBox="0 0 20 20" fill="none" xmlns="http://www.w3.org/2000/svg">
<path d="M19.0008 7.29879V12.6988C19.0008 14.9488 18.5508 16.5238 17.5428 17.5408L11.8008 11.7988L18.7578 4.8418C18.9198 5.5528 19.0008 6.36279 19.0008 7.29879Z" stroke="currentColor" stroke-width="1.5" stroke-linecap="round" stroke-linejoin="round"/>
<path d="M18.757 4.843L4.84299 18.757C2.13399 18.136 1 16.264 1 12.7V7.3C1 2.8 2.8 1 7.3 1H12.7C16.264 1 18.136 2.134 18.757 4.843Z" stroke="currentColor" stroke-width="1.5" stroke-linecap="round" stroke-linejoin="round"/>
<path d="M17.5408 17.5428C16.5238 18.5508 14.9488 19.0008 12.6988 19.0008H7.29881C6.36281 19.0008 5.5528 18.9198 4.8418 18.7578L11.7988 11.8008L17.5408 17.5428Z" stroke="currentColor" stroke-width="1.5" stroke-linecap="round" stroke-linejoin="round"/>
<path opacity="0.4" d="M4.81575 6.38107C5.42775 3.74407 9.38776 3.74407 9.99976 6.38107C10.3508 7.92907 9.37874 9.24307 8.52374 10.0531C7.90274 10.6471 6.92176 10.6471 6.29176 10.0531C5.43676 9.24307 4.45575 7.92907 4.81575 6.38107Z" stroke="currentColor" stroke-width="1.5"/>
</svg>
