<svg width="24" height="17" viewBox="0 0 24 17" fill="none" xmlns="http://www.w3.org/2000/svg">
<path d="M0.107451 17C0.0358169 16.9319 0 16.7873 0 16.5661C0 16.2257 0.0179084 16.0556 0.0537253 16.0556C0.196993 16.0556 0.40294 16.03 0.671566 15.979C0.958101 15.9109 1.21777 15.8258 1.45058 15.7237C1.68339 15.6216 1.81771 15.528 1.85352 15.4429C1.97888 15.0175 2.04156 14.3283 2.04156 13.3754V3.62462C2.04156 2.55255 1.97888 1.88889 1.85352 1.63363C1.7998 1.4975 1.65653 1.37838 1.42372 1.27628C1.20882 1.17417 0.976009 1.0976 0.725291 1.04655C0.492482 0.978478 0.304443 0.944444 0.161176 0.944444C0.0895422 0.944444 0.0537253 0.774274 0.0537253 0.433934C0.0537253 0.178679 0.0716337 0.034034 0.107451 0L3.84136 0.153153C4.07417 0.17017 4.51292 0.161662 5.15763 0.127628C5.82024 0.0935936 6.6888 0.0510511 7.7633 0C7.81703 0.0680681 7.84389 0.246747 7.84389 0.536036C7.84389 0.808308 7.80808 0.944444 7.73644 0.944444C7.62899 0.944444 7.44095 0.978478 7.17233 1.04655C6.92161 1.11461 6.67089 1.1997 6.42017 1.3018C6.18736 1.38689 6.05305 1.47197 6.01723 1.55706C5.87396 1.93143 5.80233 2.65465 5.80233 3.72673V7.35135L5.85606 7.42793L9.07957 7.47898C9.33029 7.47898 9.71532 7.47898 10.2347 7.47898C10.754 7.46196 11.4166 7.44494 12.2225 7.42793C12.2583 7.39389 12.2762 7.35986 12.2762 7.32583V3.62462C12.2762 2.70571 12.2135 2.03353 12.0882 1.60811C12.0524 1.50601 11.9181 1.4039 11.6853 1.3018C11.4703 1.1997 11.2375 1.11461 10.9868 1.04655C10.7361 0.978478 10.5391 0.944444 10.3958 0.944444C10.36 0.944444 10.3242 0.876376 10.2884 0.74024C10.2705 0.604104 10.2705 0.459459 10.2884 0.306306C10.3063 0.136136 10.3332 0.034034 10.369 0L14.3715 0.153153C14.6401 0.153153 15.849 0.102102 17.998 0C18.0517 0.153153 18.0786 0.306306 18.0786 0.459459C18.0786 0.782783 18.0338 0.944444 17.9442 0.944444C17.8368 0.944444 17.6488 0.978478 17.3801 1.04655C17.1294 1.11461 16.8876 1.1997 16.6548 1.3018C16.422 1.38689 16.2877 1.47197 16.2519 1.55706C16.1803 1.81231 16.1265 2.11862 16.0907 2.47598C16.0549 2.83333 16.037 3.25025 16.037 3.72673V13.2733C16.037 13.7327 16.0549 14.1411 16.0907 14.4985C16.1265 14.8559 16.1803 15.1707 16.2519 15.4429C16.2877 15.511 16.4131 15.5961 16.628 15.6982C16.8608 15.7833 17.1026 15.8599 17.3533 15.9279C17.6219 15.996 17.8099 16.03 17.9174 16.03C17.989 16.03 18.0248 16.2087 18.0248 16.5661C18.0248 16.7022 17.998 16.8468 17.9442 17C17.8726 17 17.7025 16.9915 17.4339 16.9745C17.1652 16.9575 16.8071 16.9319 16.3594 16.8979C15.9116 16.8639 15.5177 16.8383 15.1774 16.8213C14.8371 16.8043 14.5506 16.7958 14.3178 16.7958C14.085 16.7958 13.7626 16.8043 13.3507 16.8213C12.9567 16.8383 12.5449 16.8639 12.1151 16.8979C11.7032 16.9149 11.3271 16.9319 10.9868 16.9489C10.6466 16.983 10.4227 17 10.3153 17C10.2794 16.9489 10.2526 16.8468 10.2347 16.6937C10.2168 16.5405 10.2168 16.3959 10.2347 16.2598C10.2705 16.1236 10.3063 16.0556 10.3421 16.0556C10.4854 16.0556 10.6913 16.0215 10.96 15.9535C11.2286 15.8854 11.4793 15.8003 11.7121 15.6982C11.9449 15.5791 12.0792 15.477 12.1151 15.3919C12.2225 15.0005 12.2762 14.3283 12.2762 13.3754V9.11261L12.2225 9.01051L9.07957 8.95946C6.85893 8.97648 5.74861 9.002 5.74861 9.03604L5.80233 9.08709V13.2733C5.80233 13.7157 5.82024 14.1156 5.85606 14.473C5.89187 14.8303 5.9456 15.1451 6.01723 15.4174C6.05305 15.4855 6.17841 15.5706 6.39331 15.6727C6.62612 15.7748 6.86788 15.8684 7.1186 15.9535C7.38723 16.0215 7.57527 16.0556 7.68272 16.0556C7.75435 16.0556 7.79017 16.1832 7.79017 16.4384C7.80808 16.6937 7.79017 16.8809 7.73644 17C6.85893 16.9489 6.11573 16.9064 5.50684 16.8724C4.91586 16.8213 4.37861 16.7958 3.89508 16.7958C3.30411 16.7958 2.70417 16.8213 2.09529 16.8724C1.50431 16.9064 0.841696 16.9489 0.107451 17Z" fill="currentColor"/>
<path d="M20.1386 16.9698C20.0975 16.9308 20.077 16.8383 20.077 16.6921C20.077 16.5459 20.0975 16.4728 20.1386 16.4728C20.2206 16.4728 20.3386 16.4581 20.4924 16.4289C20.6463 16.3899 20.7899 16.3461 20.9232 16.2973C21.0566 16.2388 21.1284 16.1901 21.1386 16.1511C21.2002 15.9172 21.231 15.6346 21.231 15.3032V10.2154C21.231 9.96204 21.2156 9.75736 21.1848 9.60141C21.154 9.44547 21.0822 9.3675 20.9694 9.3675C20.8976 9.3675 20.7745 9.41136 20.6001 9.49907L19.9386 9.86457C19.877 9.83533 19.8206 9.78173 19.7693 9.70375C19.718 9.61603 19.6924 9.54781 19.6924 9.49907C19.6924 9.43085 19.7026 9.38699 19.7232 9.3675C20.595 8.81194 21.3079 8.36847 21.8618 8.03709C22.4259 7.69596 22.7388 7.52539 22.8003 7.52539H22.8311C22.9131 7.52539 22.9747 7.61311 23.0157 7.78855C22.9234 8.09069 22.8772 8.54878 22.8772 9.16282V14.9815C22.8772 15.4494 22.9183 15.8392 23.0003 16.1511C23.0208 16.1999 23.0926 16.2535 23.2157 16.3119C23.3491 16.3607 23.4875 16.3997 23.6311 16.4289C23.785 16.4581 23.8927 16.4728 23.9542 16.4728C23.985 16.4728 24.0004 16.5702 24.0004 16.7652C24.0004 16.8724 23.9953 16.9406 23.985 16.9698C23.9747 16.9698 23.8927 16.9601 23.7388 16.9406C23.585 16.9308 23.4003 16.9211 23.1849 16.9114C22.9695 16.9016 22.7541 16.8919 22.5387 16.8821C22.3336 16.8724 22.1695 16.8675 22.0464 16.8675C21.9233 16.8675 21.7592 16.8724 21.5541 16.8821C21.3489 16.8919 21.1386 16.9016 20.9232 16.9114C20.7181 16.9211 20.5386 16.9308 20.3847 16.9406C20.2411 16.9601 20.1591 16.9698 20.1386 16.9698Z" fill="currentColor" fill-opacity="0.4"/>
</svg>
