<svg width="20" height="20" viewBox="0 0 20 20" fill="none" xmlns="http://www.w3.org/2000/svg">
<path d="M10.8286 1.20975L16.6875 4.37628C17.3715 4.74616 17.3715 5.80167 16.6875 6.17155L10.8286 9.33809C10.3066 9.61775 9.69466 9.61775 9.17267 9.33809L3.31377 6.17155C2.62978 5.80167 2.62978 4.74616 3.31377 4.37628L9.17267 1.20975C9.69466 0.930084 10.3066 0.930084 10.8286 1.20975Z" stroke="currentColor" stroke-width="1.5" stroke-linecap="round" stroke-linejoin="round"/>
<path opacity="0.4" d="M2.44897 8.30936L7.89388 11.0429C8.56887 11.3857 9.00086 12.0803 9.00086 12.8381V17.9984C9.00086 18.7472 8.21787 19.2253 7.55188 18.8915L2.10698 16.158C1.43199 15.8152 1 15.1206 1 14.3628V9.20248C1 8.4537 1.78299 7.97556 2.44897 8.30936Z" stroke="currentColor" stroke-width="1.5" stroke-linecap="round" stroke-linejoin="round"/>
<path opacity="0.4" d="M17.5509 8.30936L12.106 11.0429C11.431 11.3857 10.999 12.0803 10.999 12.8381V17.9984C10.999 18.7472 11.782 19.2253 12.448 18.8915L17.8929 16.158C18.5679 15.8152 18.9999 15.1206 18.9999 14.3628V9.20248C18.9999 8.4537 18.2169 7.97556 17.5509 8.30936Z" stroke="currentColor" stroke-width="1.5" stroke-linecap="round" stroke-linejoin="round"/>
</svg>
