<svg width="20" height="20" viewBox="0 0 20 20" fill="none" xmlns="http://www.w3.org/2000/svg">
<path opacity="0.4" d="M16.2996 6.4C17.7908 6.4 18.9996 5.19117 18.9996 3.7C18.9996 2.20883 17.7908 1 16.2996 1C14.8084 1 13.5996 2.20883 13.5996 3.7C13.5996 5.19117 14.8084 6.4 16.2996 6.4Z" stroke="currentColor" stroke-width="1.5" stroke-linecap="round" stroke-linejoin="round"/>
<path d="M11.8 1H7.3C2.8 1 1 2.8 1 7.3V12.7C1 17.2 2.8 19 7.3 19H12.7C17.2 19 19 17.2 19 12.7V8.2" stroke="currentColor" stroke-width="1.5" stroke-linecap="round" stroke-linejoin="round"/>
<path opacity="0.4" d="M5.32961 12.6369C5.01461 11.6469 5.38361 10.4139 6.42761 10.0809C6.97661 9.9009 7.65161 10.0539 8.03861 10.5849C8.39861 10.0359 9.10061 9.9099 9.64061 10.0809C10.6846 10.4139 11.0536 11.6469 10.7386 12.6369C10.2436 14.2119 8.51561 15.0309 8.03861 15.0309C7.55261 15.0219 5.84261 14.2209 5.32961 12.6369Z" stroke="currentColor" stroke-width="1.5" stroke-linecap="round" stroke-linejoin="round"/>
</svg>
