<svg width="20" height="20" viewBox="0 0 20 20" fill="none" xmlns="http://www.w3.org/2000/svg">
<path d="M11.8 13.6006C11.8 15.1936 11.107 16.6336 10 17.6146C9.046 18.4786 7.786 19.0006 6.4 19.0006C3.421 19.0006 1 16.5796 1 13.6006C1 11.1166 2.692 9.01065 4.978 8.38965C5.599 9.95565 6.931 11.1616 8.578 11.6116C9.028 11.7376 9.505 11.8006 10 11.8006C10.495 11.8006 10.972 11.7376 11.422 11.6116C11.665 12.2236 11.8 12.8986 11.8 13.6006Z" stroke="currentColor" stroke-width="1.5" stroke-linecap="round" stroke-linejoin="round"/>
<path d="M15.3996 6.4C15.3996 7.102 15.2646 7.777 15.0216 8.389C14.4006 9.955 13.0686 11.161 11.4216 11.611C10.9716 11.737 10.4946 11.8 9.99961 11.8C9.50461 11.8 9.02761 11.737 8.57761 11.611C6.93061 11.161 5.59861 9.955 4.97761 8.389C4.73461 7.777 4.59961 7.102 4.59961 6.4C4.59961 3.421 7.02061 1 9.99961 1C12.9786 1 15.3996 3.421 15.3996 6.4Z" stroke="currentColor" stroke-width="1.5" stroke-linecap="round" stroke-linejoin="round"/>
<path opacity="0.4" d="M19 13.6006C19 16.5796 16.579 19.0006 13.6 19.0006C12.214 19.0006 10.954 18.4786 10 17.6146C11.107 16.6336 11.8 15.1936 11.8 13.6006C11.8 12.8986 11.665 12.2236 11.422 11.6116C13.069 11.1616 14.401 9.95565 15.022 8.38965C17.308 9.01065 19 11.1166 19 13.6006Z" stroke="currentColor" stroke-width="1.5" stroke-linecap="round" stroke-linejoin="round"/>
</svg>
