<svg width="20" height="17" viewBox="0 0 20 17" fill="none" xmlns="http://www.w3.org/2000/svg">
<path opacity="0.4" d="M1 9.27959L3.25 7.92959C4.636 7.10159 6.364 7.10159 7.75 7.92959C9.136 8.75759 10.864 8.75759 12.25 7.92959C13.636 7.10159 15.364 7.10159 16.75 7.92959L19 9.27959" stroke="currentColor" stroke-width="1.5" stroke-miterlimit="10" stroke-linecap="round" stroke-linejoin="round"/>
<path d="M1 1L3.25 2.35C4.636 3.178 6.364 3.178 7.75 2.35C9.136 1.522 10.864 1.522 12.25 2.35C13.636 3.178 15.364 3.178 16.75 2.35L19 1" stroke="currentColor" stroke-width="1.5" stroke-miterlimit="10" stroke-linecap="round" stroke-linejoin="round"/>
<path d="M1 15.5804L3.25 14.2304C4.636 13.4024 6.364 13.4024 7.75 14.2304C9.136 15.0584 10.864 15.0584 12.25 14.2304C13.636 13.4024 15.364 13.4024 16.75 14.2304L19 15.5804" stroke="currentColor" stroke-width="1.5" stroke-miterlimit="10" stroke-linecap="round" stroke-linejoin="round"/>
</svg>
