<svg width="20" height="20" viewBox="0 0 20 20" fill="none" xmlns="http://www.w3.org/2000/svg">
<path d="M1 1H2.60222C3.5967 1 4.37939 1.837 4.29652 2.8L3.53224 11.764C3.40333 13.231 4.59117 14.491 6.10131 14.491H15.908C17.234 14.491 18.3942 13.429 18.4955 12.142L18.9927 5.392C19.1032 3.898 17.943 2.683 16.4052 2.683H4.51752" stroke="currentColor" stroke-width="2" stroke-miterlimit="10" stroke-linecap="round" stroke-linejoin="round"/>
<path opacity="0.4" d="M14.1207 19C14.7564 19 15.2718 18.4963 15.2718 17.875C15.2718 17.2537 14.7564 16.75 14.1207 16.75C13.4851 16.75 12.9697 17.2537 12.9697 17.875C12.9697 18.4963 13.4851 19 14.1207 19Z" stroke="currentColor" stroke-width="2" stroke-miterlimit="10" stroke-linecap="round" stroke-linejoin="round"/>
<path opacity="0.4" d="M6.75551 19C7.3912 19 7.90653 18.4963 7.90653 17.875C7.90653 17.2537 7.3912 16.75 6.75551 16.75C6.11982 16.75 5.60449 17.2537 5.60449 17.875C5.60449 18.4963 6.11982 19 6.75551 19Z" stroke="currentColor" stroke-width="2" stroke-miterlimit="10" stroke-linecap="round" stroke-linejoin="round"/>
<path opacity="0.4" d="M7.44629 6.40039H18.4961" stroke="currentColor" stroke-width="2" stroke-miterlimit="10" stroke-linecap="round" stroke-linejoin="round"/>
</svg>
