<svg width="18" height="20" viewBox="0 0 18 20" fill="none" xmlns="http://www.w3.org/2000/svg">
<path opacity="0.4" d="M8.94824 4.9668V7.94149" stroke="currentColor" stroke-width="1.5" stroke-miterlimit="10" stroke-linecap="round"/>
<path d="M8.96588 1C5.67853 1 3.0165 3.66203 3.0165 6.94938V8.82531C3.0165 9.43275 2.76637 10.3439 2.45372 10.862L1.31923 12.7558C0.622454 13.9261 1.10484 15.2303 2.39119 15.6591C6.66116 17.0794 11.2795 17.0794 15.5495 15.6591C16.7555 15.2571 17.2736 13.8457 16.6215 12.7558L15.487 10.862C15.1743 10.3439 14.9242 9.42382 14.9242 8.82531V6.94938C14.9153 3.6799 12.2354 1 8.96588 1Z" stroke="currentColor" stroke-width="1.5" stroke-miterlimit="10" stroke-linecap="round"/>
<path opacity="0.4" d="M11.923 16.0254C11.923 17.6601 10.5831 19.0001 8.94832 19.0001C8.13542 19.0001 7.38505 18.6606 6.84907 18.1246C6.31309 17.5887 5.97363 16.8383 5.97363 16.0254" stroke="currentColor" stroke-width="1.5" stroke-miterlimit="10"/>
</svg>
