<svg width="22" height="22" viewBox="0 0 22 22" fill="none" xmlns="http://www.w3.org/2000/svg">
<path opacity="0.4" d="M17.0263 6.15979C16.9662 6.14979 16.8961 6.14979 16.836 6.15979C15.4535 6.10979 14.3516 4.97983 14.3516 3.57989C14.3516 2.14995 15.5036 1 16.9361 1C18.3687 1 19.5207 2.15995 19.5207 3.57989C19.5107 4.97983 18.4087 6.10979 17.0263 6.15979Z" stroke="currentColor" stroke-width="1.5" stroke-linecap="round" stroke-linejoin="round"/>
<path opacity="0.4" d="M15.9939 13.439C17.3664 13.669 18.879 13.429 19.9409 12.719C21.3534 11.779 21.3534 10.2391 19.9409 9.29915C18.869 8.58918 17.3363 8.34919 15.9639 8.58918" stroke="currentColor" stroke-width="1.5" stroke-linecap="round" stroke-linejoin="round"/>
<path opacity="0.4" d="M4.97488 6.15979C5.03499 6.14979 5.10511 6.14979 5.16522 6.15979C6.54767 6.10979 7.64962 4.97983 7.64962 3.57989C7.64962 2.14995 6.49758 1 5.06504 1C3.63251 1 2.48047 2.15995 2.48047 3.57989C2.49049 4.97983 3.59244 6.10979 4.97488 6.15979Z" stroke="currentColor" stroke-width="1.5" stroke-linecap="round" stroke-linejoin="round"/>
<path opacity="0.4" d="M6.00636 13.439C4.63393 13.669 3.12125 13.429 2.05937 12.719C0.646875 11.779 0.646875 10.2391 2.05937 9.29915C3.13127 8.58918 4.66398 8.34919 6.03641 8.58918" stroke="currentColor" stroke-width="1.5" stroke-linecap="round" stroke-linejoin="round"/>
<path d="M11.0185 13.6285C10.9584 13.6185 10.8883 13.6185 10.8281 13.6285C9.4457 13.5785 8.34375 12.4486 8.34375 11.0486C8.34375 9.6187 9.49579 8.46875 10.9283 8.46875C12.3609 8.46875 13.5129 9.6287 13.5129 11.0486C13.5029 12.4486 12.4009 13.5885 11.0185 13.6285Z" stroke="currentColor" stroke-width="1.5" stroke-linecap="round" stroke-linejoin="round"/>
<path d="M8.10332 16.7784C6.69082 17.7183 6.69082 19.2583 8.10332 20.1982C9.70616 21.2682 12.3308 21.2682 13.9336 20.1982C15.3461 19.2583 15.3461 17.7183 13.9336 16.7784C12.3408 15.7184 9.70616 15.7184 8.10332 16.7784Z" stroke="currentColor" stroke-width="1.5" stroke-linecap="round" stroke-linejoin="round"/>
</svg>
