<svg width="20" height="18" viewBox="0 0 20 18" fill="none" xmlns="http://www.w3.org/2000/svg">
<path d="M19.0002 8.53832H13.7828C12.4065 8.53832 11.4619 7.49482 11.4619 6.21744V3.32083C11.4619 2.04345 12.4065 1 13.7828 1H16.6794C17.9567 1 19.0002 2.04345 19.0002 3.32083V8.53832Z" stroke="currentColor" stroke-width="1.5" stroke-linecap="round" stroke-linejoin="round"/>
<path d="M18.9998 8.53809C18.9998 13.9804 17.9833 14.8799 14.9248 16.6971" stroke="currentColor" stroke-width="1.5" stroke-linecap="round" stroke-linejoin="round"/>
<g opacity="0.4">
<path d="M8.53832 8.53832H3.32087C1.94454 8.53832 1 7.49482 1 6.21744V3.32083C1 2.04345 1.94454 1 3.32087 1H6.22645C7.50382 1 8.54731 2.04345 8.54731 3.32083V8.53832" stroke="currentColor" stroke-width="1.5" stroke-linecap="round" stroke-linejoin="round"/>
<path d="M8.5379 8.53809C8.5379 13.9804 7.5214 14.8799 4.46289 16.6971" stroke="currentColor" stroke-width="1.5" stroke-linecap="round" stroke-linejoin="round"/>
</g>
</svg>
