<svg width="18" height="20" viewBox="0 0 18 20" fill="none" xmlns="http://www.w3.org/2000/svg">
<path d="M15.5584 0.869759C12.7925 -2.37142 3.8413 3.91291 3.91391 11.9994C3.91221 12.0986 3.87203 12.1933 3.80183 12.2635C3.73163 12.3337 3.63691 12.3739 3.53764 12.3756C3.47245 12.3749 3.40852 12.3576 3.35192 12.3252C3.29531 12.2929 3.2479 12.2466 3.21419 12.1908C2.29408 10.1883 2.17134 7.91045 2.87092 5.82065C2.89687 5.74404 2.89547 5.66081 2.86697 5.58512C2.83846 5.50943 2.78461 5.44595 2.71458 5.40548C2.64455 5.36502 2.56266 5.35007 2.48284 5.36318C2.40303 5.37629 2.33023 5.41665 2.27682 5.47739C1.14095 6.7171 0.390184 8.26043 0.116011 9.91932C-0.158161 11.5782 0.0560943 13.281 0.732671 14.8203C1.40925 16.3596 2.51893 17.6688 3.92651 18.5885C5.33408 19.5082 6.97877 19.9986 8.66016 20C20.846 19.7558 18.0272 3.76108 15.5584 0.869759Z" fill="currentColor"/>
</svg>
